<?xml version="1.0" encoding="utf-8"?>
<!-- Generator: Adobe Illustrator 15.1.0, SVG Export Plug-In  -->
<!DOCTYPE svg PUBLIC "-//W3C//DTD SVG 1.1//EN" "http://www.w3.org/Graphics/SVG/1.1/DTD/svg11.dtd" [
	<!ENTITY ns_flows "http://ns.adobe.com/Flows/1.0/">
]>
<svg version="1.1"
	 xmlns="http://www.w3.org/2000/svg" xmlns:xlink="http://www.w3.org/1999/xlink" xmlns:a="http://ns.adobe.com/AdobeSVGViewerExtensions/3.0/"
	 x="0px" y="0px" width="21px" height="19px" viewBox="0 0 21 19" enable-background="new 0 0 21 19" xml:space="preserve">
<defs>
</defs>
<g>
	<defs>
		<rect id="SVGID_1_" width="20.586" height="19.267"/>
	</defs>
	<clipPath id="SVGID_2_">
		<use xlink:href="#SVGID_1_"  overflow="visible"/>
	</clipPath>
	<path clip-path="url(#SVGID_2_)" fill-rule="evenodd" clip-rule="evenodd" fill="#ffffff" d="M9.852,12.718H9.29v2.208h0.199
		c0.099,0,0.194-0.039,0.259-0.103c0.069-0.069,0.104-0.158,0.104-0.262V12.718z M10.205,3.189h-5.85
		c-0.102,0-0.193,0.042-0.261,0.109l-0.01,0.01C4.025,3.372,3.989,3.459,3.989,3.554v0.7v6.915v0.693
		c0,0.104,0.04,0.194,0.104,0.261c0.068,0.063,0.157,0.107,0.261,0.107h1.153h3.539H10.1h0.104c0.1,0,0.191-0.044,0.256-0.107V12.12
		c0.068-0.063,0.107-0.154,0.107-0.258v-0.968V4.254v-0.7c0-0.097-0.039-0.191-0.107-0.256C10.396,3.231,10.304,3.189,10.205,3.189
		 M4.354,2.703h5.85c0.231,0,0.449,0.096,0.603,0.251c0.154,0.151,0.25,0.368,0.25,0.6v0.458h1.313c0.118,0,0.224-0.031,0.327-0.074
		c0.119-0.052,0.233-0.123,0.356-0.2l5.405-3.448c0.043-0.035,0.096-0.055,0.148-0.055c0.135,0,0.247,0.113,0.247,0.248v5.291h0.644
		c0.235,0,0.448,0.095,0.603,0.249c0.153,0.156,0.252,0.369,0.252,0.602v2.17c0,0.232-0.099,0.445-0.252,0.6h-0.003
		c-0.151,0.158-0.369,0.251-0.6,0.251h-0.644v5.024h-0.003c0,0.045-0.014,0.089-0.036,0.131c-0.077,0.112-0.229,0.146-0.341,0.073
		l-5.421-3.465c-0.123-0.074-0.237-0.145-0.356-0.2c-0.104-0.039-0.209-0.07-0.327-0.07h-1.313v0.725
		c0,0.236-0.096,0.451-0.25,0.603h-0.002c-0.122,0.126-0.283,0.208-0.46,0.24v1.856c0,0.238-0.097,0.449-0.252,0.605
		c-0.157,0.152-0.369,0.25-0.604,0.25H9.29v2.151c0,0.401-0.163,0.769-0.427,1.034c-0.268,0.262-0.632,0.43-1.035,0.43H6.732
		c-0.402,0-0.766-0.168-1.03-0.43H5.698H5.695c-0.264-0.266-0.427-0.633-0.427-1.034v-4.851H4.354c-0.236,0-0.445-0.098-0.601-0.253
		c-0.157-0.154-0.251-0.366-0.251-0.603v-0.451H2.584c-0.229,0-0.446-0.094-0.602-0.251c-0.156-0.155-0.25-0.367-0.25-0.6V9.645
		H1.088c-0.234,0-0.447-0.093-0.602-0.251c-0.155-0.154-0.25-0.367-0.25-0.6v-2.17c0-0.222,0.09-0.43,0.232-0.583
		c0.006-0.006,0.01-0.011,0.017-0.019c0.155-0.154,0.368-0.249,0.602-0.249h0.645V4.862c0-0.227,0.09-0.433,0.235-0.588
		C1.972,4.27,1.975,4.264,1.983,4.257c0.156-0.152,0.369-0.245,0.602-0.245h0.918V3.554c0-0.227,0.087-0.433,0.233-0.587
		c0.006-0.003,0.01-0.007,0.019-0.013C3.906,2.799,4.119,2.703,4.354,2.703 M3.502,4.498H2.584c-0.098,0-0.192,0.039-0.258,0.104
		l-0.009,0.01C2.256,4.676,2.223,4.765,2.223,4.862v1.155v3.384v1.159c0,0.1,0.036,0.193,0.104,0.258
		c0.066,0.065,0.161,0.105,0.258,0.105h0.918V4.498z M8.801,12.718H5.756v4.851c0,0.271,0.107,0.516,0.286,0.69
		c0.173,0.175,0.419,0.285,0.69,0.285h1.096c0.269,0,0.514-0.11,0.687-0.285c0.182-0.175,0.287-0.42,0.287-0.69v-2.396V12.718z
		 M19.498,6.264h-0.644v2.894h0.644c0.1,0,0.19-0.04,0.252-0.108c0.071-0.062,0.11-0.158,0.11-0.255v-2.17
		c0-0.097-0.039-0.188-0.11-0.256C19.688,6.304,19.597,6.264,19.498,6.264 M1.733,6.264H1.088c-0.103,0-0.193,0.04-0.257,0.104
		l-0.01,0.01C0.761,6.441,0.722,6.53,0.722,6.624v2.17c0,0.097,0.041,0.193,0.109,0.255c0.064,0.068,0.155,0.108,0.257,0.108h0.645
		V6.264z M18.366,0.923l-5.052,3.223c-0.143,0.091-0.279,0.175-0.425,0.234c-0.16,0.072-0.328,0.117-0.52,0.117h-1.313v6.152h1.313
		c0.191,0,0.359,0.046,0.52,0.116c0.146,0.061,0.282,0.145,0.425,0.232l5.052,3.225V9.401V6.018V0.923z"/>
	<path clip-path="url(#SVGID_2_)" fill="none" stroke="#ffffff" stroke-width="0.14" stroke-miterlimit="10" d="M9.852,12.718H9.29
		v2.208h0.199c0.099,0,0.194-0.039,0.259-0.103c0.069-0.069,0.104-0.158,0.104-0.262V12.718z M10.205,3.189h-5.85
		c-0.102,0-0.193,0.042-0.261,0.109l-0.01,0.01C4.025,3.372,3.989,3.459,3.989,3.554v0.7v6.915v0.693
		c0,0.104,0.04,0.194,0.104,0.261c0.068,0.063,0.157,0.107,0.261,0.107h1.153h3.539H10.1h0.104c0.1,0,0.191-0.044,0.256-0.107V12.12
		c0.068-0.063,0.107-0.154,0.107-0.258v-0.968V4.254v-0.7c0-0.097-0.039-0.191-0.107-0.256C10.396,3.231,10.304,3.189,10.205,3.189z
		 M4.354,2.703h5.85c0.231,0,0.449,0.096,0.603,0.251c0.154,0.151,0.25,0.368,0.25,0.6v0.458h1.313c0.118,0,0.224-0.031,0.327-0.074
		c0.119-0.052,0.233-0.123,0.356-0.2l5.405-3.448c0.043-0.035,0.096-0.055,0.148-0.055c0.135,0,0.247,0.113,0.247,0.248v5.291h0.644
		c0.235,0,0.448,0.095,0.603,0.249c0.153,0.156,0.252,0.369,0.252,0.602v2.17c0,0.232-0.099,0.445-0.252,0.6h-0.003
		c-0.151,0.158-0.369,0.251-0.6,0.251h-0.644v5.024h-0.003c0,0.045-0.014,0.089-0.036,0.131c-0.077,0.112-0.229,0.146-0.341,0.073
		l-5.421-3.465c-0.123-0.074-0.237-0.145-0.356-0.2c-0.104-0.039-0.209-0.07-0.327-0.07h-1.313v0.725
		c0,0.236-0.096,0.451-0.25,0.603h-0.002c-0.122,0.126-0.283,0.208-0.46,0.24v1.856c0,0.238-0.097,0.449-0.252,0.605
		c-0.157,0.152-0.369,0.25-0.604,0.25H9.29v2.151c0,0.401-0.163,0.769-0.427,1.034c-0.268,0.262-0.632,0.43-1.035,0.43H6.732
		c-0.402,0-0.766-0.168-1.03-0.43H5.698H5.695c-0.264-0.266-0.427-0.633-0.427-1.034v-4.851H4.354c-0.236,0-0.445-0.098-0.601-0.253
		c-0.157-0.154-0.251-0.366-0.251-0.603v-0.451H2.584c-0.229,0-0.446-0.094-0.602-0.251c-0.156-0.155-0.25-0.367-0.25-0.6V9.645
		H1.088c-0.234,0-0.447-0.093-0.602-0.251c-0.155-0.154-0.25-0.367-0.25-0.6v-2.17c0-0.222,0.09-0.43,0.232-0.583
		c0.006-0.006,0.01-0.011,0.017-0.019c0.155-0.154,0.368-0.249,0.602-0.249h0.645V4.862c0-0.227,0.09-0.433,0.235-0.588
		C1.972,4.27,1.975,4.264,1.983,4.257c0.156-0.152,0.369-0.245,0.602-0.245h0.918V3.554c0-0.227,0.087-0.433,0.233-0.587
		c0.006-0.003,0.01-0.007,0.019-0.013C3.906,2.799,4.119,2.703,4.354,2.703z M3.502,4.498H2.584c-0.098,0-0.192,0.039-0.258,0.104
		l-0.009,0.01C2.256,4.676,2.223,4.765,2.223,4.862v1.155v3.384v1.159c0,0.1,0.036,0.193,0.104,0.258
		c0.066,0.065,0.161,0.105,0.258,0.105h0.918V4.498z M8.801,12.718H5.756v4.851c0,0.271,0.107,0.516,0.286,0.69
		c0.173,0.175,0.419,0.285,0.69,0.285h1.096c0.269,0,0.514-0.11,0.687-0.285c0.182-0.175,0.287-0.42,0.287-0.69v-2.396V12.718z
		 M19.498,6.264h-0.644v2.894h0.644c0.1,0,0.19-0.04,0.252-0.108c0.071-0.062,0.11-0.158,0.11-0.255v-2.17
		c0-0.097-0.039-0.188-0.11-0.256C19.688,6.304,19.597,6.264,19.498,6.264z M1.733,6.264H1.088c-0.103,0-0.193,0.04-0.257,0.104
		l-0.01,0.01C0.761,6.441,0.722,6.53,0.722,6.624v2.17c0,0.097,0.041,0.193,0.109,0.255c0.064,0.068,0.155,0.108,0.257,0.108h0.645
		V6.264z M18.366,0.923l-5.052,3.223c-0.143,0.091-0.279,0.175-0.425,0.234c-0.16,0.072-0.328,0.117-0.52,0.117h-1.313v6.152h1.313
		c0.191,0,0.359,0.046,0.52,0.116c0.146,0.061,0.282,0.145,0.425,0.232l5.052,3.225V9.401V6.018V0.923z"/>
</g>
</svg>
