<?xml version="1.0" encoding="utf-8"?>
<!-- Generator: Adobe Illustrator 15.1.0, SVG Export Plug-In  -->
<!DOCTYPE svg PUBLIC "-//W3C//DTD SVG 1.1//EN" "http://www.w3.org/Graphics/SVG/1.1/DTD/svg11.dtd" [
	<!ENTITY ns_flows "http://ns.adobe.com/Flows/1.0/">
]>
<svg version="1.1"
	 xmlns="http://www.w3.org/2000/svg" xmlns:xlink="http://www.w3.org/1999/xlink" xmlns:a="http://ns.adobe.com/AdobeSVGViewerExtensions/3.0/"
	 x="0px" y="0px" width="20px" height="17px" viewBox="0 0 20 17" enable-background="new 0 0 20 17" xml:space="preserve">
<defs>
</defs>
<g>
	<defs>
		<rect id="SVGID_1_" width="20.025" height="16.779"/>
	</defs>
	<clipPath id="SVGID_2_">
		<use xlink:href="#SVGID_1_"  overflow="visible"/>
	</clipPath>
	<path clip-path="url(#SVGID_2_)" fill-rule="evenodd" clip-rule="evenodd" fill="#ffffff" d="M1.459,0.215h17.106
		c0.342,0,0.654,0.137,0.877,0.365h0.005c0.221,0.228,0.364,0.535,0.364,0.879v12.704c0,0.342-0.144,0.654-0.364,0.879
		c-0.226,0.224-0.54,0.362-0.882,0.362h-0.556v0.966c0,0.106-0.093,0.193-0.207,0.193H2.224c-0.115,0-0.208-0.087-0.208-0.193
		v-0.966H1.459c-0.34,0-0.653-0.139-0.877-0.362v-0.002H0.579c-0.225-0.228-0.362-0.537-0.362-0.877V1.458
		c0-0.344,0.141-0.656,0.365-0.879C0.806,0.352,1.117,0.215,1.459,0.215 M10.22,4.682V4.286c0-0.115-0.092-0.207-0.208-0.207
		c-0.115,0-0.208,0.092-0.208,0.207v0.396c0,0.115,0.093,0.208,0.208,0.208C10.128,4.89,10.22,4.797,10.22,4.682 M1.64,3.625
		c-0.112,0-0.205,0.094-0.205,0.207v2.792c0,0.115,0.092,0.209,0.205,0.209h0.376v1.953H1.64c-0.112,0-0.205,0.094-0.205,0.208
		v2.793c0,0.115,0.092,0.207,0.205,0.207h0.376v1.401c0,0.115,0.093,0.211,0.208,0.211h15.579c0.114,0,0.207-0.096,0.207-0.211
		V2.221c0-0.115-0.093-0.207-0.207-0.207H2.224c-0.115,0-0.208,0.091-0.208,0.207v1.404H1.64z M2.224,4.042H1.849v2.374h0.375h0.374
		V4.042H2.224z M2.224,9.202H1.849v2.377h0.375h0.374V9.202H2.224z M6.88,7.606H6.482c-0.115,0-0.205,0.093-0.205,0.211
		c0,0.11,0.09,0.204,0.205,0.204H6.88c0.115,0,0.208-0.093,0.208-0.204C7.089,7.699,6.996,7.606,6.88,7.606 M9.805,10.947v0.396
		c0,0.115,0.093,0.208,0.208,0.208c0.115,0,0.208-0.093,0.208-0.208v-0.396c0-0.115-0.092-0.208-0.208-0.208
		C9.898,10.74,9.805,10.832,9.805,10.947 M13.143,8.021h0.398c0.112,0,0.208-0.093,0.208-0.204c0-0.118-0.096-0.211-0.208-0.211
		h-0.398c-0.112,0-0.207,0.093-0.207,0.211C12.936,7.927,13.031,8.021,13.143,8.021 M10.013,8.882c0.295,0,0.558-0.121,0.752-0.313
		l0.011-0.009c0.189-0.192,0.304-0.455,0.304-0.744c0-0.296-0.118-0.565-0.314-0.757c-0.194-0.191-0.458-0.313-0.752-0.313
		S9.451,6.868,9.254,7.06h0.002c-0.19,0.192-0.311,0.461-0.311,0.757c0,0.292,0.118,0.56,0.309,0.752
		C9.451,8.762,9.718,8.882,10.013,8.882 M11.009,8.811l0.009-0.009c0.247-0.255,0.404-0.604,0.404-0.985
		c0-0.392-0.16-0.743-0.413-0.999c-0.255-0.255-0.609-0.414-0.997-0.414c-0.388,0-0.739,0.158-0.997,0.414H9.013
		c-0.253,0.256-0.41,0.606-0.41,0.999c0,0.387,0.157,0.738,0.41,0.994h0.002l0.003,0.002c0.255,0.253,0.609,0.412,0.994,0.412
		C10.4,9.225,10.754,9.066,11.009,8.811 M10.013,9.864c0.567,0,1.078-0.228,1.452-0.599l0.008-0.008
		c0.365-0.372,0.59-0.88,0.59-1.44c0-0.57-0.23-1.081-0.598-1.453c-0.374-0.371-0.884-0.601-1.452-0.601
		c-0.567,0-1.078,0.23-1.45,0.601C8.192,6.736,7.961,7.247,7.961,7.817c0,0.563,0.23,1.078,0.601,1.448
		C8.935,9.636,9.446,9.864,10.013,9.864 M11.711,9.512l0.008-0.011c0.429-0.432,0.693-1.028,0.693-1.684
		c0-0.666-0.267-1.267-0.702-1.7c-0.438-0.434-1.039-0.702-1.699-0.702c-0.666,0-1.264,0.269-1.697,0.702
		C7.881,6.55,7.61,7.151,7.61,7.817c0,0.658,0.271,1.259,0.705,1.695c0.434,0.434,1.032,0.702,1.697,0.702
		C10.672,10.214,11.273,9.946,11.711,9.512 M16.81,4.803h0.783V2.429H2.431v1.196h0.376c0.112,0,0.208,0.094,0.208,0.207v2.792
		c0,0.115-0.096,0.209-0.208,0.209H2.431v1.953h0.376c0.112,0,0.208,0.094,0.208,0.208v2.793c0,0.115-0.096,0.207-0.208,0.207H2.431
		v1.196h15.163v-2.375H16.81c-0.112,0-0.205-0.093-0.205-0.208V5.01C16.605,4.895,16.698,4.803,16.81,4.803 M17.593,5.217h-0.581
		v5.185h0.581V5.217z M17.593,15.403H2.431v0.772h15.163V15.403z M18.565,0.629H1.459c-0.228,0-0.436,0.091-0.584,0.244
		C0.722,1.022,0.63,1.23,0.63,1.458v12.704c0,0.23,0.091,0.433,0.242,0.587h0.003c0.148,0.148,0.356,0.242,0.584,0.242h17.106
		c0.228,0,0.436-0.094,0.587-0.242c0.148-0.154,0.242-0.359,0.242-0.587V1.458c0-0.229-0.094-0.436-0.242-0.585V0.87
		C19,0.72,18.792,0.629,18.565,0.629"/>
	<path clip-path="url(#SVGID_2_)" fill="none" stroke="#ffffff" stroke-width="0.15" stroke-miterlimit="10" d="M1.459,0.215h17.106
		c0.342,0,0.654,0.137,0.877,0.365h0.005c0.221,0.228,0.364,0.535,0.364,0.879v12.704c0,0.342-0.144,0.654-0.364,0.879
		c-0.226,0.224-0.54,0.362-0.882,0.362h-0.556v0.966c0,0.106-0.093,0.193-0.207,0.193H2.224c-0.115,0-0.208-0.087-0.208-0.193
		v-0.966H1.459c-0.34,0-0.653-0.139-0.877-0.362v-0.002H0.579c-0.225-0.228-0.362-0.537-0.362-0.877V1.458
		c0-0.344,0.141-0.656,0.365-0.879C0.806,0.352,1.117,0.215,1.459,0.215z M10.22,4.682V4.286c0-0.115-0.092-0.207-0.208-0.207
		c-0.115,0-0.208,0.092-0.208,0.207v0.396c0,0.115,0.093,0.208,0.208,0.208C10.128,4.89,10.22,4.797,10.22,4.682z M1.64,3.625
		c-0.112,0-0.205,0.094-0.205,0.207v2.792c0,0.115,0.092,0.209,0.205,0.209h0.376v1.953H1.64c-0.112,0-0.205,0.094-0.205,0.208
		v2.793c0,0.115,0.092,0.207,0.205,0.207h0.376v1.401c0,0.115,0.093,0.211,0.208,0.211h15.579c0.114,0,0.207-0.096,0.207-0.211
		V2.221c0-0.115-0.093-0.207-0.207-0.207H2.224c-0.115,0-0.208,0.091-0.208,0.207v1.404H1.64z M2.224,4.042H1.849v2.374h0.375h0.374
		V4.042H2.224z M2.224,9.202H1.849v2.377h0.375h0.374V9.202H2.224z M6.88,7.606H6.482c-0.115,0-0.205,0.093-0.205,0.211
		c0,0.11,0.09,0.204,0.205,0.204H6.88c0.115,0,0.208-0.093,0.208-0.204C7.089,7.699,6.996,7.606,6.88,7.606z M9.805,10.947v0.396
		c0,0.115,0.093,0.208,0.208,0.208c0.115,0,0.208-0.093,0.208-0.208v-0.396c0-0.115-0.092-0.208-0.208-0.208
		C9.898,10.74,9.805,10.832,9.805,10.947z M13.143,8.021h0.398c0.112,0,0.208-0.093,0.208-0.204c0-0.118-0.096-0.211-0.208-0.211
		h-0.398c-0.112,0-0.207,0.093-0.207,0.211C12.936,7.927,13.031,8.021,13.143,8.021z M10.013,8.882c0.295,0,0.558-0.121,0.752-0.313
		l0.011-0.009c0.189-0.192,0.304-0.455,0.304-0.744c0-0.296-0.118-0.565-0.314-0.757c-0.194-0.191-0.458-0.313-0.752-0.313
		S9.451,6.868,9.254,7.06h0.002c-0.19,0.192-0.311,0.461-0.311,0.757c0,0.292,0.118,0.56,0.309,0.752
		C9.451,8.762,9.718,8.882,10.013,8.882z M11.009,8.811l0.009-0.009c0.247-0.255,0.404-0.604,0.404-0.985
		c0-0.392-0.16-0.743-0.413-0.999c-0.255-0.255-0.609-0.414-0.997-0.414c-0.388,0-0.739,0.158-0.997,0.414H9.013
		c-0.253,0.256-0.41,0.606-0.41,0.999c0,0.387,0.157,0.738,0.41,0.994h0.002l0.003,0.002c0.255,0.253,0.609,0.412,0.994,0.412
		C10.4,9.225,10.754,9.066,11.009,8.811z M10.013,9.864c0.567,0,1.078-0.228,1.452-0.599l0.008-0.008
		c0.365-0.372,0.59-0.88,0.59-1.44c0-0.57-0.23-1.081-0.598-1.453c-0.374-0.371-0.884-0.601-1.452-0.601
		c-0.567,0-1.078,0.23-1.45,0.601C8.192,6.736,7.961,7.247,7.961,7.817c0,0.563,0.23,1.078,0.601,1.448
		C8.935,9.636,9.446,9.864,10.013,9.864z M11.711,9.512l0.008-0.011c0.429-0.432,0.693-1.028,0.693-1.684
		c0-0.666-0.267-1.267-0.702-1.7c-0.438-0.434-1.039-0.702-1.699-0.702c-0.666,0-1.264,0.269-1.697,0.702
		C7.881,6.55,7.61,7.151,7.61,7.817c0,0.658,0.271,1.259,0.705,1.695c0.434,0.434,1.032,0.702,1.697,0.702
		C10.672,10.214,11.273,9.946,11.711,9.512z M16.81,4.803h0.783V2.429H2.431v1.196h0.376c0.112,0,0.208,0.094,0.208,0.207v2.792
		c0,0.115-0.096,0.209-0.208,0.209H2.431v1.953h0.376c0.112,0,0.208,0.094,0.208,0.208v2.793c0,0.115-0.096,0.207-0.208,0.207H2.431
		v1.196h15.163v-2.375H16.81c-0.112,0-0.205-0.093-0.205-0.208V5.01C16.605,4.895,16.698,4.803,16.81,4.803z M17.593,5.217h-0.581
		v5.185h0.581V5.217z M17.593,15.403H2.431v0.772h15.163V15.403z M18.565,0.629H1.459c-0.228,0-0.436,0.091-0.584,0.244
		C0.722,1.022,0.63,1.23,0.63,1.458v12.704c0,0.23,0.091,0.433,0.242,0.587h0.003c0.148,0.148,0.356,0.242,0.584,0.242h17.106
		c0.228,0,0.436-0.094,0.587-0.242c0.148-0.154,0.242-0.359,0.242-0.587V1.458c0-0.229-0.094-0.436-0.242-0.585V0.87
		C19,0.72,18.792,0.629,18.565,0.629z"/>
</g>
</svg>
