<?xml version="1.0" encoding="utf-8"?>
<!-- Generator: Adobe Illustrator 15.1.0, SVG Export Plug-In  -->
<!DOCTYPE svg PUBLIC "-//W3C//DTD SVG 1.1//EN" "http://www.w3.org/Graphics/SVG/1.1/DTD/svg11.dtd" [
	<!ENTITY ns_flows "http://ns.adobe.com/Flows/1.0/">
]>
<svg version="1.1"
	 xmlns="http://www.w3.org/2000/svg" xmlns:xlink="http://www.w3.org/1999/xlink" xmlns:a="http://ns.adobe.com/AdobeSVGViewerExtensions/3.0/"
	 x="0px" y="0px" width="20px" height="20px" viewBox="0 0 20 20" enable-background="new 0 0 20 20" xml:space="preserve">
<defs>
</defs>
<g>
	<defs>
		<rect id="SVGID_1_" width="20.215" height="20.213"/>
	</defs>
	<clipPath id="SVGID_2_">
		<use xlink:href="#SVGID_1_"  overflow="visible"/>
	</clipPath>
	<path clip-path="url(#SVGID_2_)" fill-rule="evenodd" clip-rule="evenodd" fill="#ffffff" d="M12.765,2.642l0.751,0.312
		c0.048,0.018,0.097,0.027,0.145,0.027c0.045-0.003,0.09-0.015,0.135-0.039l1.596-0.822c0.15-0.077,0.316-0.102,0.473-0.077
		c0.159,0.024,0.31,0.098,0.43,0.218h0.003l1.659,1.659c0.12,0.12,0.192,0.271,0.216,0.431c0.027,0.156,0,0.323-0.075,0.474
		L17.27,6.416c-0.021,0.049-0.033,0.095-0.036,0.138c-0.003,0.05,0.006,0.095,0.027,0.145l0.318,0.764
		c0.018,0.046,0.045,0.09,0.078,0.12c0.036,0.03,0.078,0.056,0.123,0.07l1.71,0.546c0.159,0.051,0.298,0.15,0.391,0.279l0.004-0.003
		c0.09,0.132,0.146,0.291,0.146,0.461v2.343c0,0.169-0.057,0.328-0.146,0.457h-0.004h0.004c-0.097,0.129-0.231,0.229-0.395,0.282
		l-1.71,0.544c-0.045,0.016-0.087,0.039-0.123,0.072c-0.033,0.03-0.061,0.069-0.078,0.117l-0.006,0.01l-0.313,0.754
		c-0.021,0.048-0.03,0.096-0.027,0.145c0.003,0.045,0.015,0.09,0.036,0.135l0.826,1.596c0.075,0.15,0.103,0.316,0.075,0.476
		c-0.023,0.159-0.096,0.307-0.216,0.43l-1.659,1.659c-0.12,0.12-0.271,0.192-0.433,0.219c-0.156,0.024-0.325,0-0.473-0.081
		l-1.596-0.82c-0.045-0.024-0.09-0.036-0.135-0.039c-0.048-0.003-0.1,0.006-0.145,0.027l-0.764,0.315
		c-0.045,0.021-0.09,0.048-0.12,0.084s-0.054,0.075-0.069,0.123l-0.547,1.707c-0.051,0.162-0.15,0.295-0.279,0.391
		c-0.129,0.097-0.288,0.147-0.457,0.147H8.937c-0.17,0-0.329-0.051-0.458-0.147c-0.129-0.096-0.229-0.229-0.281-0.391L8.194,19.48
		l-0.541-1.698c-0.015-0.048-0.04-0.09-0.07-0.123c-0.031-0.036-0.071-0.063-0.12-0.084L7.45,17.572l-0.751-0.313
		c-0.05-0.021-0.096-0.03-0.145-0.027c-0.043,0.003-0.09,0.015-0.135,0.039l-1.595,0.82c-0.151,0.081-0.317,0.105-0.475,0.081
		c-0.159-0.026-0.312-0.099-0.43-0.219l-1.659-1.659l-0.014-0.016c-0.113-0.117-0.183-0.261-0.206-0.414
		c-0.024-0.159,0-0.325,0.082-0.476l0.817-1.596c0.025-0.045,0.038-0.09,0.041-0.135c0-0.049-0.009-0.097-0.028-0.145L2.637,12.75
		c-0.02-0.048-0.046-0.087-0.081-0.12c-0.033-0.03-0.077-0.054-0.126-0.069l-1.705-0.544c-0.164-0.054-0.299-0.153-0.391-0.282
		L0.322,11.72c-0.086-0.127-0.139-0.28-0.139-0.442V8.935c0-0.17,0.056-0.329,0.152-0.458V8.474
		c0.092-0.126,0.227-0.226,0.391-0.276L2.43,7.652c0.049-0.015,0.093-0.04,0.126-0.073c0.035-0.027,0.062-0.071,0.081-0.117
		l0.316-0.764c0.02-0.05,0.028-0.095,0.028-0.145C2.979,6.51,2.966,6.464,2.941,6.416L2.124,4.824
		C2.042,4.673,2.018,4.506,2.042,4.35c0.026-0.16,0.1-0.308,0.22-0.431L3.921,2.26c0.118-0.12,0.271-0.194,0.43-0.218
		c0.157-0.025,0.323,0,0.475,0.077L6.42,2.941C6.465,2.965,6.512,2.977,6.555,2.98c0.049,0,0.095-0.009,0.145-0.027H6.696
		l0.767-0.317l0.009-0.003c0.044-0.018,0.08-0.046,0.111-0.077c0.03-0.035,0.056-0.078,0.07-0.126l0.003-0.011l0.541-1.695
		C8.25,0.561,8.35,0.425,8.479,0.331c0.129-0.093,0.288-0.147,0.458-0.147h2.343c0.169,0,0.328,0.054,0.457,0.147
		c0.129,0.095,0.229,0.23,0.279,0.394l0.003,0.009l0.544,1.697c0.016,0.048,0.039,0.091,0.069,0.126
		c0.03,0.033,0.075,0.062,0.12,0.08L12.765,2.642z M10.107,14.987c1.347,0,2.569-0.55,3.447-1.431
		c0.884-0.881,1.434-2.104,1.434-3.452c0-1.345-0.55-2.566-1.434-3.448c-0.878-0.881-2.101-1.43-3.447-1.43s-2.568,0.549-3.452,1.43
		c-0.88,0.882-1.427,2.104-1.427,3.448c0,1.349,0.547,2.571,1.427,3.452C7.539,14.437,8.761,14.987,10.107,14.987 M13.87,13.869
		c0.962-0.962,1.56-2.293,1.56-3.765c0-1.468-0.598-2.796-1.56-3.763c-0.965-0.963-2.293-1.558-3.763-1.558s-2.8,0.598-3.766,1.561
		c-0.964,0.964-1.557,2.292-1.557,3.76c0,1.472,0.593,2.803,1.557,3.765c0.966,0.965,2.296,1.56,3.766,1.56
		S12.905,14.833,13.87,13.869 M13.348,3.362l-0.752-0.314l-0.015-0.003c-0.105-0.042-0.198-0.106-0.273-0.191
		c-0.075-0.08-0.13-0.179-0.169-0.289l-0.54-1.696l-0.004-0.012c-0.021-0.07-0.063-0.129-0.12-0.17
		c-0.051-0.039-0.123-0.06-0.195-0.06H8.937c-0.073,0-0.144,0.021-0.196,0.06c-0.056,0.041-0.1,0.1-0.12,0.17l-0.543,1.7
		L8.074,2.565c-0.036,0.11-0.092,0.209-0.165,0.289C7.835,2.935,7.748,2.995,7.645,3.039L7.631,3.044L6.869,3.362
		C6.758,3.405,6.649,3.426,6.538,3.42C6.429,3.417,6.317,3.39,6.216,3.334L4.625,2.513c-0.068-0.035-0.14-0.047-0.207-0.035
		C4.351,2.489,4.286,2.521,4.233,2.574L2.576,4.233C2.52,4.286,2.489,4.35,2.479,4.418c-0.012,0.067,0,0.138,0.035,0.202
		l0.821,1.595c0.056,0.101,0.084,0.212,0.087,0.323C3.428,6.648,3.41,6.756,3.363,6.865L3.046,7.631
		C3.003,7.738,2.938,7.831,2.855,7.905c-0.08,0.073-0.179,0.132-0.29,0.17l-1.707,0.54c-0.07,0.024-0.126,0.068-0.169,0.124V8.736
		C0.652,8.792,0.626,8.859,0.626,8.935v2.343c0,0.069,0.023,0.136,0.059,0.187l0.003,0.009c0.043,0.058,0.099,0.1,0.169,0.12
		l1.707,0.548c0.111,0.035,0.21,0.09,0.29,0.165c0.083,0.072,0.148,0.165,0.191,0.276l0.317,0.764
		c0.047,0.107,0.064,0.219,0.059,0.33c-0.003,0.108-0.031,0.217-0.087,0.321l-0.821,1.591c-0.035,0.068-0.047,0.141-0.035,0.207
		c0.009,0.063,0.038,0.123,0.085,0.174l0.011,0.007l1.658,1.661c0.053,0.058,0.117,0.088,0.185,0.097
		c0.067,0.012,0.139,0,0.207-0.033l1.591-0.826c0.102-0.052,0.213-0.078,0.322-0.081c0.111-0.006,0.22,0.012,0.331,0.057l0.75,0.313
		l0.012,0.006c0.108,0.042,0.204,0.108,0.278,0.189c0.073,0.081,0.129,0.178,0.165,0.289l0.543,1.698l0.003,0.009
		c0.021,0.072,0.064,0.129,0.12,0.168c0.053,0.039,0.123,0.063,0.196,0.063h2.343c0.072,0,0.145-0.024,0.195-0.063
		c0.058-0.039,0.1-0.096,0.12-0.168l0.544-1.707c0.039-0.108,0.094-0.208,0.169-0.289s0.165-0.147,0.276-0.189l0.764-0.318
		c0.107-0.045,0.216-0.063,0.327-0.057c0.111,0.003,0.223,0.029,0.325,0.081l1.593,0.826c0.065,0.033,0.135,0.045,0.204,0.033
		c0.063-0.009,0.129-0.039,0.181-0.097l1.662-1.661c0.054-0.052,0.087-0.114,0.096-0.181c0.012-0.066,0-0.139-0.033-0.207
		l-0.823-1.591c-0.055-0.104-0.081-0.213-0.087-0.321c-0.003-0.111,0.015-0.223,0.06-0.33l0.313-0.755l0.006-0.012
		c0.043-0.105,0.105-0.201,0.189-0.273c0.081-0.075,0.178-0.13,0.289-0.165l1.71-0.548c0.069-0.021,0.126-0.063,0.165-0.12
		c0.039-0.054,0.063-0.123,0.063-0.195V8.935c0-0.076-0.024-0.144-0.063-0.196V8.736c-0.036-0.053-0.096-0.097-0.165-0.117
		l-1.71-0.544c-0.111-0.038-0.208-0.094-0.289-0.17c-0.084-0.074-0.146-0.167-0.189-0.273l-0.318-0.767
		c-0.045-0.108-0.063-0.217-0.06-0.326c0.006-0.111,0.032-0.223,0.087-0.323l0.823-1.595c0.033-0.064,0.045-0.135,0.033-0.202
		c-0.009-0.068-0.042-0.133-0.096-0.186l-1.662-1.659l0.003-0.003c-0.055-0.05-0.12-0.083-0.184-0.093
		c-0.069-0.012-0.139,0-0.204,0.035L14,3.334c-0.103,0.056-0.214,0.083-0.325,0.086C13.563,3.426,13.455,3.405,13.348,3.362
		 M10.107,7.889c-0.61,0-1.168,0.25-1.567,0.649c-0.401,0.402-0.65,0.957-0.65,1.565c0,0.613,0.249,1.168,0.65,1.57
		c0.399,0.4,0.957,0.646,1.567,0.646c0.604,0,1.154-0.243,1.554-0.634l0.016-0.013c0.399-0.402,0.648-0.957,0.648-1.57
		c0-0.611-0.249-1.166-0.648-1.565C11.276,8.139,10.718,7.889,10.107,7.889 M11.36,8.853c-0.318-0.32-0.766-0.518-1.253-0.518
		S9.177,8.533,8.853,8.853c-0.32,0.319-0.517,0.763-0.517,1.251c0,0.49,0.196,0.934,0.517,1.255
		c0.324,0.322,0.768,0.518,1.255,0.518c0.484,0,0.926-0.192,1.241-0.505l0.012-0.013c0.322-0.321,0.518-0.765,0.518-1.255
		C11.878,9.619,11.683,9.172,11.36,8.853"/>
	<path clip-path="url(#SVGID_2_)" fill="none" stroke="#ffffff" stroke-width="0.12" stroke-miterlimit="10" d="M12.765,2.642
		l0.751,0.312c0.048,0.018,0.097,0.027,0.145,0.027c0.045-0.003,0.09-0.015,0.135-0.039l1.596-0.822
		c0.15-0.077,0.316-0.102,0.473-0.077c0.159,0.024,0.31,0.098,0.43,0.218h0.003l1.659,1.659c0.12,0.12,0.192,0.271,0.216,0.431
		c0.027,0.156,0,0.323-0.075,0.474L17.27,6.416c-0.021,0.049-0.033,0.095-0.036,0.138c-0.003,0.05,0.006,0.095,0.027,0.145
		l0.318,0.764c0.018,0.046,0.045,0.09,0.078,0.12c0.036,0.03,0.078,0.056,0.123,0.07l1.71,0.546c0.159,0.051,0.298,0.15,0.391,0.279
		l0.004-0.003c0.09,0.132,0.146,0.291,0.146,0.461v2.343c0,0.169-0.057,0.328-0.146,0.457h-0.004h0.004
		c-0.097,0.129-0.231,0.229-0.395,0.282l-1.71,0.544c-0.045,0.016-0.087,0.039-0.123,0.072c-0.033,0.03-0.061,0.069-0.078,0.117
		l-0.006,0.01l-0.313,0.754c-0.021,0.048-0.03,0.096-0.027,0.145c0.003,0.045,0.015,0.09,0.036,0.135l0.826,1.596
		c0.075,0.15,0.103,0.316,0.075,0.476c-0.023,0.159-0.096,0.307-0.216,0.43l-1.659,1.659c-0.12,0.12-0.271,0.192-0.433,0.219
		c-0.156,0.024-0.325,0-0.473-0.081l-1.596-0.82c-0.045-0.024-0.09-0.036-0.135-0.039c-0.048-0.003-0.1,0.006-0.145,0.027
		l-0.764,0.315c-0.045,0.021-0.09,0.048-0.12,0.084s-0.054,0.075-0.069,0.123l-0.547,1.707c-0.051,0.162-0.15,0.295-0.279,0.391
		c-0.129,0.097-0.288,0.147-0.457,0.147H8.937c-0.17,0-0.329-0.051-0.458-0.147c-0.129-0.096-0.229-0.229-0.281-0.391L8.194,19.48
		l-0.541-1.698c-0.015-0.048-0.04-0.09-0.07-0.123c-0.031-0.036-0.071-0.063-0.12-0.084L7.45,17.572l-0.751-0.313
		c-0.05-0.021-0.096-0.03-0.145-0.027c-0.043,0.003-0.09,0.015-0.135,0.039l-1.595,0.82c-0.151,0.081-0.317,0.105-0.475,0.081
		c-0.159-0.026-0.312-0.099-0.43-0.219l-1.659-1.659l-0.014-0.016c-0.113-0.117-0.183-0.261-0.206-0.414
		c-0.024-0.159,0-0.325,0.082-0.476l0.817-1.596c0.025-0.045,0.038-0.09,0.041-0.135c0-0.049-0.009-0.097-0.028-0.145L2.637,12.75
		c-0.02-0.048-0.046-0.087-0.081-0.12c-0.033-0.03-0.077-0.054-0.126-0.069l-1.705-0.544c-0.164-0.054-0.299-0.153-0.391-0.282
		L0.322,11.72c-0.086-0.127-0.139-0.28-0.139-0.442V8.935c0-0.17,0.056-0.329,0.152-0.458V8.474
		c0.092-0.126,0.227-0.226,0.391-0.276L2.43,7.652c0.049-0.015,0.093-0.04,0.126-0.073c0.035-0.027,0.062-0.071,0.081-0.117
		l0.316-0.764c0.02-0.05,0.028-0.095,0.028-0.145C2.979,6.51,2.966,6.464,2.941,6.416L2.124,4.824
		C2.042,4.673,2.018,4.506,2.042,4.35c0.026-0.16,0.1-0.308,0.22-0.431L3.921,2.26c0.118-0.12,0.271-0.194,0.43-0.218
		c0.157-0.025,0.323,0,0.475,0.077L6.42,2.941C6.465,2.965,6.512,2.977,6.555,2.98c0.049,0,0.095-0.009,0.145-0.027H6.696
		l0.767-0.317l0.009-0.003c0.044-0.018,0.08-0.046,0.111-0.077c0.03-0.035,0.056-0.078,0.07-0.126l0.003-0.011l0.541-1.695
		C8.25,0.561,8.35,0.425,8.479,0.331c0.129-0.093,0.288-0.147,0.458-0.147h2.343c0.169,0,0.328,0.054,0.457,0.147
		c0.129,0.095,0.229,0.23,0.279,0.394l0.003,0.009l0.544,1.697c0.016,0.048,0.039,0.091,0.069,0.126
		c0.03,0.033,0.075,0.062,0.12,0.08L12.765,2.642z M10.107,14.987c1.347,0,2.569-0.55,3.447-1.431
		c0.884-0.881,1.434-2.104,1.434-3.452c0-1.345-0.55-2.566-1.434-3.448c-0.878-0.881-2.101-1.43-3.447-1.43s-2.568,0.549-3.452,1.43
		c-0.88,0.882-1.427,2.104-1.427,3.448c0,1.349,0.547,2.571,1.427,3.452C7.539,14.437,8.761,14.987,10.107,14.987z M13.87,13.869
		c0.962-0.962,1.56-2.293,1.56-3.765c0-1.468-0.598-2.796-1.56-3.763c-0.965-0.963-2.293-1.558-3.763-1.558s-2.8,0.598-3.766,1.561
		c-0.964,0.964-1.557,2.292-1.557,3.76c0,1.472,0.593,2.803,1.557,3.765c0.966,0.965,2.296,1.56,3.766,1.56
		S12.905,14.833,13.87,13.869z M13.348,3.362l-0.752-0.314l-0.015-0.003c-0.105-0.042-0.198-0.106-0.273-0.191
		c-0.075-0.08-0.13-0.179-0.169-0.289l-0.54-1.696l-0.004-0.012c-0.021-0.07-0.063-0.129-0.12-0.17
		c-0.051-0.039-0.123-0.06-0.195-0.06H8.937c-0.073,0-0.144,0.021-0.196,0.06c-0.056,0.041-0.1,0.1-0.12,0.17l-0.543,1.7
		L8.074,2.565c-0.036,0.11-0.092,0.209-0.165,0.289C7.835,2.935,7.748,2.995,7.645,3.039L7.631,3.044L6.869,3.362
		C6.758,3.405,6.649,3.426,6.538,3.42C6.429,3.417,6.317,3.39,6.216,3.334L4.625,2.513c-0.068-0.035-0.14-0.047-0.207-0.035
		C4.351,2.489,4.286,2.521,4.233,2.574L2.576,4.233C2.52,4.286,2.489,4.35,2.479,4.418c-0.012,0.067,0,0.138,0.035,0.202
		l0.821,1.595c0.056,0.101,0.084,0.212,0.087,0.323C3.428,6.648,3.41,6.756,3.363,6.865L3.046,7.631
		C3.003,7.738,2.938,7.831,2.855,7.905c-0.08,0.073-0.179,0.132-0.29,0.17l-1.707,0.54c-0.07,0.024-0.126,0.068-0.169,0.124V8.736
		C0.652,8.792,0.626,8.859,0.626,8.935v2.343c0,0.069,0.023,0.136,0.059,0.187l0.003,0.009c0.043,0.058,0.099,0.1,0.169,0.12
		l1.707,0.548c0.111,0.035,0.21,0.09,0.29,0.165c0.083,0.072,0.148,0.165,0.191,0.276l0.317,0.764
		c0.047,0.107,0.064,0.219,0.059,0.33c-0.003,0.108-0.031,0.217-0.087,0.321l-0.821,1.591c-0.035,0.068-0.047,0.141-0.035,0.207
		c0.009,0.063,0.038,0.123,0.085,0.174l0.011,0.007l1.658,1.661c0.053,0.058,0.117,0.088,0.185,0.097
		c0.067,0.012,0.139,0,0.207-0.033l1.591-0.826c0.102-0.052,0.213-0.078,0.322-0.081c0.111-0.006,0.22,0.012,0.331,0.057l0.75,0.313
		l0.012,0.006c0.108,0.042,0.204,0.108,0.278,0.189c0.073,0.081,0.129,0.178,0.165,0.289l0.543,1.698l0.003,0.009
		c0.021,0.072,0.064,0.129,0.12,0.168c0.053,0.039,0.123,0.063,0.196,0.063h2.343c0.072,0,0.145-0.024,0.195-0.063
		c0.058-0.039,0.1-0.096,0.12-0.168l0.544-1.707c0.039-0.108,0.094-0.208,0.169-0.289s0.165-0.147,0.276-0.189l0.764-0.318
		c0.107-0.045,0.216-0.063,0.327-0.057c0.111,0.003,0.223,0.029,0.325,0.081l1.593,0.826c0.065,0.033,0.135,0.045,0.204,0.033
		c0.063-0.009,0.129-0.039,0.181-0.097l1.662-1.661c0.054-0.052,0.087-0.114,0.096-0.181c0.012-0.066,0-0.139-0.033-0.207
		l-0.823-1.591c-0.055-0.104-0.081-0.213-0.087-0.321c-0.003-0.111,0.015-0.223,0.06-0.33l0.313-0.755l0.006-0.012
		c0.043-0.105,0.105-0.201,0.189-0.273c0.081-0.075,0.178-0.13,0.289-0.165l1.71-0.548c0.069-0.021,0.126-0.063,0.165-0.12
		c0.039-0.054,0.063-0.123,0.063-0.195V8.935c0-0.076-0.024-0.144-0.063-0.196V8.736c-0.036-0.053-0.096-0.097-0.165-0.117
		l-1.71-0.544c-0.111-0.038-0.208-0.094-0.289-0.17c-0.084-0.074-0.146-0.167-0.189-0.273l-0.318-0.767
		c-0.045-0.108-0.063-0.217-0.06-0.326c0.006-0.111,0.032-0.223,0.087-0.323l0.823-1.595c0.033-0.064,0.045-0.135,0.033-0.202
		c-0.009-0.068-0.042-0.133-0.096-0.186l-1.662-1.659l0.003-0.003c-0.055-0.05-0.12-0.083-0.184-0.093
		c-0.069-0.012-0.139,0-0.204,0.035L14,3.334c-0.103,0.056-0.214,0.083-0.325,0.086C13.563,3.426,13.455,3.405,13.348,3.362z
		 M10.107,7.889c-0.61,0-1.168,0.25-1.567,0.649c-0.401,0.402-0.65,0.957-0.65,1.565c0,0.613,0.249,1.168,0.65,1.57
		c0.399,0.4,0.957,0.646,1.567,0.646c0.604,0,1.154-0.243,1.554-0.634l0.016-0.013c0.399-0.402,0.648-0.957,0.648-1.57
		c0-0.611-0.249-1.166-0.648-1.565C11.276,8.139,10.718,7.889,10.107,7.889z M11.36,8.853c-0.318-0.32-0.766-0.518-1.253-0.518
		S9.177,8.533,8.853,8.853c-0.32,0.319-0.517,0.763-0.517,1.251c0,0.49,0.196,0.934,0.517,1.255
		c0.324,0.322,0.768,0.518,1.255,0.518c0.484,0,0.926-0.192,1.241-0.505l0.012-0.013c0.322-0.321,0.518-0.765,0.518-1.255
		C11.878,9.619,11.683,9.172,11.36,8.853z"/>
</g>
</svg>
