<?xml version="1.0" encoding="utf-8"?>
<!-- Generator: Adobe Illustrator 15.1.0, SVG Export Plug-In  -->
<!DOCTYPE svg PUBLIC "-//W3C//DTD SVG 1.1//EN" "http://www.w3.org/Graphics/SVG/1.1/DTD/svg11.dtd" [
	<!ENTITY ns_flows "http://ns.adobe.com/Flows/1.0/">
]>
<svg version="1.1"
	 xmlns="http://www.w3.org/2000/svg" xmlns:xlink="http://www.w3.org/1999/xlink" xmlns:a="http://ns.adobe.com/AdobeSVGViewerExtensions/3.0/"
	 x="0px" y="0px" width="20px" height="20px" viewBox="0 0 20 20" enable-background="new 0 0 20 20" xml:space="preserve">
<defs>
</defs>
<g>
	<defs>
		<rect id="SVGID_1_" width="20.168" height="19.653"/>
	</defs>
	<clipPath id="SVGID_2_">
		<use xlink:href="#SVGID_1_"  overflow="visible"/>
	</clipPath>
	<path clip-path="url(#SVGID_2_)" fill-rule="evenodd" clip-rule="evenodd" fill="#ffffff" d="M12.378,16.714V5.654V5.65
		c0-0.095-0.039-0.182-0.102-0.242c-0.063-0.066-0.15-0.104-0.245-0.104H8.135c-0.095,0-0.18,0.037-0.247,0.104l-0.01,0.01
		c-0.058,0.061-0.09,0.146-0.09,0.236v4.504v0.01v6.546H12.378z M0.558,16.714h1.706v-6.546c0-0.222,0.088-0.425,0.237-0.575h0.003
		C2.648,9.446,2.852,9.354,3.08,9.354h3.891c0.125,0,0.243,0.028,0.348,0.081V5.654c0-0.217,0.088-0.414,0.228-0.561
		c0.002-0.005,0.009-0.011,0.012-0.017C7.708,4.93,7.911,4.84,8.135,4.84h3.896c0.126,0,0.243,0.028,0.347,0.076V1.138
		c0-0.223,0.092-0.426,0.241-0.577c0.147-0.148,0.354-0.237,0.576-0.237h3.893c0.226,0,0.429,0.089,0.58,0.237
		c0.146,0.15,0.233,0.354,0.233,0.577v15.576h1.709c0.129,0,0.237,0.105,0.237,0.233v2.151c0,0.129-0.108,0.229-0.237,0.229H0.558
		c-0.129,0-0.235-0.101-0.235-0.229v-2.151C0.322,16.819,0.428,16.714,0.558,16.714 M19.376,17.182h-1.705h-5.052h-0.008H7.554
		H7.546H2.494H0.786v1.683h18.59V17.182z M17.438,16.714V1.138c0-0.095-0.038-0.185-0.102-0.247
		c-0.063-0.064-0.152-0.103-0.249-0.103h-3.893c-0.094,0-0.183,0.038-0.247,0.103c-0.063,0.062-0.104,0.151-0.104,0.247v4.516v11.06
		H17.438z M7.318,10.162c0-0.093-0.038-0.178-0.101-0.239L7.21,9.914c-0.061-0.06-0.147-0.09-0.239-0.09H3.08
		c-0.098,0-0.184,0.038-0.25,0.099c-0.061,0.064-0.101,0.153-0.101,0.245v6.546h4.589V10.162z"/>
	<path clip-path="url(#SVGID_2_)" fill="none" stroke="#ffffff" stroke-width="0.2" stroke-miterlimit="10" d="M12.378,16.714V5.654
		V5.65c0-0.095-0.039-0.182-0.102-0.242c-0.063-0.066-0.15-0.104-0.245-0.104H8.135c-0.095,0-0.18,0.037-0.247,0.104l-0.01,0.01
		c-0.058,0.061-0.09,0.146-0.09,0.236v4.504v0.01v6.546H12.378z M0.558,16.714h1.706v-6.546c0-0.222,0.088-0.425,0.237-0.575h0.003
		C2.648,9.446,2.852,9.354,3.08,9.354h3.891c0.125,0,0.243,0.028,0.348,0.081V5.654c0-0.217,0.088-0.414,0.228-0.561
		c0.002-0.005,0.009-0.011,0.012-0.017C7.708,4.93,7.911,4.84,8.135,4.84h3.896c0.126,0,0.243,0.028,0.347,0.076V1.138
		c0-0.223,0.092-0.426,0.241-0.577c0.147-0.148,0.354-0.237,0.576-0.237h3.893c0.226,0,0.429,0.089,0.58,0.237
		c0.146,0.15,0.233,0.354,0.233,0.577v15.576h1.709c0.129,0,0.237,0.105,0.237,0.233v2.151c0,0.129-0.108,0.229-0.237,0.229H0.558
		c-0.129,0-0.235-0.101-0.235-0.229v-2.151C0.322,16.819,0.428,16.714,0.558,16.714z M19.376,17.182h-1.705h-5.052h-0.008H7.554
		H7.546H2.494H0.786v1.683h18.59V17.182z M17.438,16.714V1.138c0-0.095-0.038-0.185-0.102-0.247
		c-0.063-0.064-0.152-0.103-0.249-0.103h-3.893c-0.094,0-0.183,0.038-0.247,0.103c-0.063,0.062-0.104,0.151-0.104,0.247v4.516v11.06
		H17.438z M7.318,10.162c0-0.093-0.038-0.178-0.101-0.239L7.21,9.914c-0.061-0.06-0.147-0.09-0.239-0.09H3.08
		c-0.098,0-0.184,0.038-0.25,0.099c-0.061,0.064-0.101,0.153-0.101,0.245v6.546h4.589V10.162z"/>
</g>
</svg>
